<svg width="223" height="39" viewBox="0 0 223 39" fill="none" xmlns="http://www.w3.org/2000/svg">
<path d="M6.44531 1.5625L12.3828 14.5312L18.3203 1.5625H24.707L15.3516 19.6484V30H9.41406V19.6484L0.0390625 1.5625H6.44531ZM38.6719 24.9414V8.86719H44.2969V30H39.0039L38.6719 24.9414ZM39.2969 20.6055L40.957 20.5664C40.957 21.9727 40.7943 23.2812 40.4688 24.4922C40.1432 25.6901 39.6549 26.7318 39.0039 27.6172C38.3529 28.4896 37.5326 29.1732 36.543 29.668C35.5534 30.1497 34.388 30.3906 33.0469 30.3906C32.0182 30.3906 31.0677 30.2474 30.1953 29.9609C29.3359 29.6615 28.5938 29.1992 27.9688 28.5742C27.3568 27.9362 26.875 27.1224 26.5234 26.1328C26.1849 25.1302 26.0156 23.9258 26.0156 22.5195V8.86719H31.6406V22.5586C31.6406 23.1836 31.7122 23.7109 31.8555 24.1406C32.0117 24.5703 32.2266 24.9219 32.5 25.1953C32.7734 25.4688 33.0924 25.6641 33.457 25.7812C33.8346 25.8984 34.2513 25.957 34.707 25.957C35.8659 25.957 36.7773 25.7227 37.4414 25.2539C38.1185 24.7852 38.5938 24.1471 38.8672 23.3398C39.1536 22.5195 39.2969 21.6081 39.2969 20.6055ZM54.2188 13.2422V30H48.5742V8.86719H53.8672L54.2188 13.2422ZM53.4375 18.6914H51.875C51.875 17.2201 52.0508 15.8659 52.4023 14.6289C52.7669 13.3789 53.2943 12.2982 53.9844 11.3867C54.6875 10.4622 55.5534 9.74609 56.582 9.23828C57.6107 8.73047 58.8021 8.47656 60.1562 8.47656C61.0938 8.47656 61.9531 8.61979 62.7344 8.90625C63.5156 9.17969 64.1862 9.61589 64.7461 10.2148C65.319 10.8008 65.7617 11.569 66.0742 12.5195C66.3867 13.457 66.543 14.5833 66.543 15.8984V30H60.918V16.5234C60.918 15.5599 60.7878 14.8177 60.5273 14.2969C60.2669 13.776 59.8958 13.4115 59.4141 13.2031C58.9453 12.9948 58.3789 12.8906 57.7148 12.8906C56.9857 12.8906 56.3477 13.0404 55.8008 13.3398C55.2669 13.6393 54.8242 14.056 54.4727 14.5898C54.1211 15.1107 53.8607 15.7227 53.6914 16.4258C53.5221 17.1289 53.4375 17.8841 53.4375 18.6914ZM66.0156 18.0469L64.0039 18.3008C64.0039 16.9206 64.1732 15.638 64.5117 14.4531C64.8633 13.2682 65.3776 12.2266 66.0547 11.3281C66.7448 10.4297 67.5977 9.73307 68.6133 9.23828C69.6289 8.73047 70.8008 8.47656 72.1289 8.47656C73.1445 8.47656 74.069 8.6263 74.9023 8.92578C75.7357 9.21224 76.4453 9.67448 77.0312 10.3125C77.6302 10.9375 78.0859 11.7578 78.3984 12.7734C78.724 13.7891 78.8867 15.0326 78.8867 16.5039V30H73.2422V16.5039C73.2422 15.5273 73.112 14.7852 72.8516 14.2773C72.6042 13.7565 72.2396 13.3984 71.7578 13.2031C71.2891 12.9948 70.7292 12.8906 70.0781 12.8906C69.401 12.8906 68.8086 13.0273 68.3008 13.3008C67.793 13.5612 67.3698 13.9258 67.0312 14.3945C66.6927 14.8633 66.4388 15.4102 66.2695 16.0352C66.1003 16.6471 66.0156 17.3177 66.0156 18.0469ZM88.8672 13.2422V30H83.2227V8.86719H88.5156L88.8672 13.2422ZM88.0859 18.6914H86.5234C86.5234 17.2201 86.6992 15.8659 87.0508 14.6289C87.4154 13.3789 87.9427 12.2982 88.6328 11.3867C89.3359 10.4622 90.2018 9.74609 91.2305 9.23828C92.2591 8.73047 93.4505 8.47656 94.8047 8.47656C95.7422 8.47656 96.6016 8.61979 97.3828 8.90625C98.1641 9.17969 98.8346 9.61589 99.3945 10.2148C99.9674 10.8008 100.41 11.569 100.723 12.5195C101.035 13.457 101.191 14.5833 101.191 15.8984V30H95.5664V16.5234C95.5664 15.5599 95.4362 14.8177 95.1758 14.2969C94.9154 13.776 94.5443 13.4115 94.0625 13.2031C93.5938 12.9948 93.0273 12.8906 92.3633 12.8906C91.6341 12.8906 90.9961 13.0404 90.4492 13.3398C89.9154 13.6393 89.4727 14.056 89.1211 14.5898C88.7695 15.1107 88.5091 15.7227 88.3398 16.4258C88.1706 17.1289 88.0859 17.8841 88.0859 18.6914ZM100.664 18.0469L98.6523 18.3008C98.6523 16.9206 98.8216 15.638 99.1602 14.4531C99.5117 13.2682 100.026 12.2266 100.703 11.3281C101.393 10.4297 102.246 9.73307 103.262 9.23828C104.277 8.73047 105.449 8.47656 106.777 8.47656C107.793 8.47656 108.717 8.6263 109.551 8.92578C110.384 9.21224 111.094 9.67448 111.68 10.3125C112.279 10.9375 112.734 11.7578 113.047 12.7734C113.372 13.7891 113.535 15.0326 113.535 16.5039V30H107.891V16.5039C107.891 15.5273 107.76 14.7852 107.5 14.2773C107.253 13.7565 106.888 13.3984 106.406 13.2031C105.938 12.9948 105.378 12.8906 104.727 12.8906C104.049 12.8906 103.457 13.0273 102.949 13.3008C102.441 13.5612 102.018 13.9258 101.68 14.3945C101.341 14.8633 101.087 15.4102 100.918 16.0352C100.749 16.6471 100.664 17.3177 100.664 18.0469ZM124.16 27.6172L129.766 8.86719H135.801L127.305 33.1836C127.122 33.7174 126.875 34.2904 126.562 34.9023C126.263 35.5143 125.853 36.0938 125.332 36.6406C124.824 37.2005 124.18 37.6562 123.398 38.0078C122.63 38.3594 121.686 38.5352 120.566 38.5352C120.033 38.5352 119.596 38.5026 119.258 38.4375C118.919 38.3724 118.516 38.2812 118.047 38.1641V34.043C118.19 34.043 118.34 34.043 118.496 34.043C118.652 34.056 118.802 34.0625 118.945 34.0625C119.688 34.0625 120.293 33.9779 120.762 33.8086C121.23 33.6393 121.608 33.3789 121.895 33.0273C122.181 32.6888 122.409 32.2461 122.578 31.6992L124.16 27.6172ZM121.816 8.86719L126.406 24.1797L127.207 30.1367L123.379 30.5469L115.781 8.86719H121.816ZM144.258 1.5625V30H138.398V1.5625H144.258ZM155.586 13.7109V18.2812H142.656V13.7109H155.586ZM156.953 1.5625V6.15234H142.656V1.5625H156.953ZM158.672 19.6484V19.2383C158.672 17.6888 158.893 16.263 159.336 14.9609C159.779 13.6458 160.423 12.5065 161.27 11.543C162.116 10.5794 163.158 9.83073 164.395 9.29688C165.632 8.75 167.051 8.47656 168.652 8.47656C170.254 8.47656 171.68 8.75 172.93 9.29688C174.18 9.83073 175.228 10.5794 176.074 11.543C176.934 12.5065 177.585 13.6458 178.027 14.9609C178.47 16.263 178.691 17.6888 178.691 19.2383V19.6484C178.691 21.1849 178.47 22.6107 178.027 23.9258C177.585 25.2279 176.934 26.3672 176.074 27.3438C175.228 28.3073 174.186 29.056 172.949 29.5898C171.712 30.1237 170.293 30.3906 168.691 30.3906C167.09 30.3906 165.664 30.1237 164.414 29.5898C163.177 29.056 162.129 28.3073 161.27 27.3438C160.423 26.3672 159.779 25.2279 159.336 23.9258C158.893 22.6107 158.672 21.1849 158.672 19.6484ZM164.297 19.2383V19.6484C164.297 20.5339 164.375 21.3607 164.531 22.1289C164.688 22.8971 164.935 23.5742 165.273 24.1602C165.625 24.7331 166.081 25.1823 166.641 25.5078C167.201 25.8333 167.884 25.9961 168.691 25.9961C169.473 25.9961 170.143 25.8333 170.703 25.5078C171.263 25.1823 171.712 24.7331 172.051 24.1602C172.389 23.5742 172.637 22.8971 172.793 22.1289C172.962 21.3607 173.047 20.5339 173.047 19.6484V19.2383C173.047 18.3789 172.962 17.5716 172.793 16.8164C172.637 16.0482 172.383 15.3711 172.031 14.7852C171.693 14.1862 171.243 13.7174 170.684 13.3789C170.124 13.0404 169.447 12.8711 168.652 12.8711C167.858 12.8711 167.181 13.0404 166.621 13.3789C166.074 13.7174 165.625 14.1862 165.273 14.7852C164.935 15.3711 164.688 16.0482 164.531 16.8164C164.375 17.5716 164.297 18.3789 164.297 19.2383ZM181.25 19.6484V19.2383C181.25 17.6888 181.471 16.263 181.914 14.9609C182.357 13.6458 183.001 12.5065 183.848 11.543C184.694 10.5794 185.736 9.83073 186.973 9.29688C188.21 8.75 189.629 8.47656 191.23 8.47656C192.832 8.47656 194.258 8.75 195.508 9.29688C196.758 9.83073 197.806 10.5794 198.652 11.543C199.512 12.5065 200.163 13.6458 200.605 14.9609C201.048 16.263 201.27 17.6888 201.27 19.2383V19.6484C201.27 21.1849 201.048 22.6107 200.605 23.9258C200.163 25.2279 199.512 26.3672 198.652 27.3438C197.806 28.3073 196.764 29.056 195.527 29.5898C194.29 30.1237 192.871 30.3906 191.27 30.3906C189.668 30.3906 188.242 30.1237 186.992 29.5898C185.755 29.056 184.707 28.3073 183.848 27.3438C183.001 26.3672 182.357 25.2279 181.914 23.9258C181.471 22.6107 181.25 21.1849 181.25 19.6484ZM186.875 19.2383V19.6484C186.875 20.5339 186.953 21.3607 187.109 22.1289C187.266 22.8971 187.513 23.5742 187.852 24.1602C188.203 24.7331 188.659 25.1823 189.219 25.5078C189.779 25.8333 190.462 25.9961 191.27 25.9961C192.051 25.9961 192.721 25.8333 193.281 25.5078C193.841 25.1823 194.29 24.7331 194.629 24.1602C194.967 23.5742 195.215 22.8971 195.371 22.1289C195.54 21.3607 195.625 20.5339 195.625 19.6484V19.2383C195.625 18.3789 195.54 17.5716 195.371 16.8164C195.215 16.0482 194.961 15.3711 194.609 14.7852C194.271 14.1862 193.822 13.7174 193.262 13.3789C192.702 13.0404 192.025 12.8711 191.23 12.8711C190.436 12.8711 189.759 13.0404 189.199 13.3789C188.652 13.7174 188.203 14.1862 187.852 14.7852C187.513 15.3711 187.266 16.0482 187.109 16.8164C186.953 17.5716 186.875 18.3789 186.875 19.2383ZM217.207 25.3906V0H222.871V30H217.773L217.207 25.3906ZM203.848 19.6875V19.2773C203.848 17.6628 204.03 16.1979 204.395 14.8828C204.759 13.5547 205.293 12.4154 205.996 11.4648C206.699 10.5143 207.565 9.77865 208.594 9.25781C209.622 8.73698 210.794 8.47656 212.109 8.47656C213.346 8.47656 214.427 8.73698 215.352 9.25781C216.289 9.77865 217.083 10.5208 217.734 11.4844C218.398 12.4349 218.932 13.5612 219.336 14.8633C219.74 16.1523 220.033 17.5651 220.215 19.1016V20C220.033 21.4714 219.74 22.8385 219.336 24.1016C218.932 25.3646 218.398 26.4714 217.734 27.4219C217.083 28.3594 216.289 29.0885 215.352 29.6094C214.414 30.1302 213.32 30.3906 212.07 30.3906C210.755 30.3906 209.583 30.1237 208.555 29.5898C207.539 29.056 206.68 28.3073 205.977 27.3438C205.286 26.3802 204.759 25.2474 204.395 23.9453C204.03 22.6432 203.848 21.224 203.848 19.6875ZM209.473 19.2773V19.6875C209.473 20.5599 209.538 21.3737 209.668 22.1289C209.811 22.8841 210.039 23.5547 210.352 24.1406C210.677 24.7135 211.094 25.1628 211.602 25.4883C212.122 25.8008 212.754 25.957 213.496 25.957C214.46 25.957 215.254 25.7422 215.879 25.3125C216.504 24.8698 216.979 24.2643 217.305 23.4961C217.643 22.7279 217.839 21.8424 217.891 20.8398V18.2812C217.852 17.4609 217.734 16.7253 217.539 16.0742C217.357 15.4102 217.083 14.8438 216.719 14.375C216.367 13.9062 215.924 13.5417 215.391 13.2812C214.87 13.0208 214.251 12.8906 213.535 12.8906C212.806 12.8906 212.181 13.0599 211.66 13.3984C211.139 13.724 210.716 14.1732 210.391 14.7461C210.078 15.319 209.844 15.9961 209.688 16.7773C209.544 17.5456 209.473 18.3789 209.473 19.2773Z" fill="#FBEDED"/>
</svg>
