<svg width="60" height="60" viewBox="0 0 60 60" fill="none" xmlns="http://www.w3.org/2000/svg">
<path d="M51 0H9C4.02944 0 0 4.02944 0 9V51C0 55.9706 4.02944 60 9 60H51C55.9706 60 60 55.9706 60 51V9C60 4.02944 55.9706 0 51 0Z" fill="#20DF40"/>
<path d="M46.2889 39.6094C45.117 38.5547 43.7107 37.6172 42.4217 36.9141C39.7264 35.0391 37.3826 34.9219 35.5076 37.6172C34.3357 39.2578 32.8123 39.4922 31.1717 38.7891C26.6014 36.6797 23.2029 33.75 21.3279 29.1797C20.3904 27.3047 20.3904 25.5469 22.4998 24.2578C23.5545 23.5547 24.7264 22.6172 24.6092 20.9766C24.492 18.8672 19.4529 11.8359 17.3436 11.1328C16.4061 10.8984 15.7029 10.8984 14.7654 11.1328C9.96074 12.7734 8.08574 16.5234 9.84355 21.0938C12.5413 27.6663 16.5365 33.6275 21.5904 38.621C26.6443 43.6145 32.6531 47.5377 39.2576 50.1562L41.2498 50.7422C44.2967 50.7422 47.9295 47.8125 49.1014 44.8828C50.1561 42.0703 47.9295 40.8984 46.2889 39.6094Z" fill="white"/>
<path d="M31.4058 16.1719C31.4058 16.1719 36.2104 16.0547 39.8433 19.6875C43.4761 23.2031 43.0073 28.3594 43.0073 28.3594M32.812 20.9766C32.812 20.9766 34.9214 20.7422 36.6792 22.6172C38.437 24.375 38.2026 26.6016 38.2026 26.6016M29.8823 11.4844C29.8823 11.4844 37.3823 11.1328 42.8901 16.6406C48.398 22.2656 47.9292 30 47.9292 30" stroke="white" stroke-width="1.63524" stroke-linecap="round"/>
</svg>
