<svg width="60" height="60" viewBox="0 0 60 60" fill="none" xmlns="http://www.w3.org/2000/svg">
<g id="&#240;&#159;&#166;&#134; icon &#34;Messenger&#34;">
<path id="Vector" d="M30 0C13.1025 0 0 12.3825 0 29.1C0 37.8449 3.58493 45.405 9.41998 50.6249C9.90748 51.0599 10.2074 51.675 10.2225 52.3349L10.3875 57.675C10.3994 58.0679 10.5079 58.4518 10.7029 58.793C10.8981 59.1342 11.1741 59.4224 11.5066 59.6319C11.8392 59.8415 12.2181 59.9662 12.6101 59.9952C13.0022 60.024 13.3954 59.9561 13.755 59.7975L19.7099 57.1724C20.2125 56.9475 20.7825 56.9099 21.315 57.0524C24.0524 57.8024 26.9624 58.2074 30 58.2074C46.8975 58.2074 60 45.8249 60 29.1075C60 12.39 46.8975 0 30 0Z" fill="url(#paint0_radial_154_60)"/>
<path id="Vector_2" d="M11.9851 37.6125L20.7976 23.6325C21.1291 23.1061 21.5661 22.6542 22.0812 22.3053C22.596 21.9564 23.1777 21.7181 23.7895 21.6054C24.4012 21.4926 25.0297 21.5078 25.6352 21.6502C26.2407 21.7925 26.8102 22.0589 27.3075 22.4325L34.3201 27.69C34.6331 27.9244 35.014 28.0504 35.4051 28.0491C35.7961 28.0478 36.1761 27.919 36.4876 27.6825L45.9526 20.4975C47.2126 19.5374 48.8626 21.0525 48.0226 22.395L39.2025 36.3675C38.871 36.8938 38.4341 37.3457 37.919 37.6946C37.404 38.0435 36.8223 38.2819 36.2107 38.3947C35.5989 38.5075 34.9704 38.4921 34.3649 38.3498C33.7594 38.2074 33.19 37.9411 32.6925 37.5675L25.6801 32.31C25.3671 32.0757 24.9862 31.9495 24.5951 31.951C24.204 31.9523 23.824 32.0809 23.5126 32.3175L14.0476 39.5025C12.7876 40.4625 11.1376 38.955 11.9851 37.6125Z" fill="white"/>
</g>
<defs>
<radialGradient id="paint0_radial_154_60" cx="0" cy="0" r="1" gradientUnits="userSpaceOnUse" gradientTransform="translate(10.05 60) scale(65.9999)">
<stop stop-color="#0099FF"/>
<stop offset="0.6" stop-color="#A033FF"/>
<stop offset="0.9" stop-color="#FF5280"/>
<stop offset="1" stop-color="#FF7061"/>
</radialGradient>
</defs>
</svg>
